<svg width="1024" height="1024" viewBox="0 0 1024 1024" xmlns="http://www.w3.org/2000/svg">
  <defs>
    <linearGradient id="bg" x1="0" y1="0" x2="1024" y2="1024" gradientUnits="userSpaceOnUse">
      <stop offset="0" stop-color="#e64980"/>
      <stop offset="0.45" stop-color="#c2255c"/>
      <stop offset="1" stop-color="#7d1538"/>
    </linearGradient>
    <radialGradient id="glow" cx="0.3" cy="0.25" r="0.9">
      <stop offset="0" stop-color="#ffffff" stop-opacity="0.30"/>
      <stop offset="0.5" stop-color="#ffffff" stop-opacity="0"/>
    </radialGradient>
    <linearGradient id="bars" x1="0" y1="320" x2="0" y2="720" gradientUnits="userSpaceOnUse">
      <stop offset="0" stop-color="#e64980"/>
      <stop offset="1" stop-color="#a61e4d"/>
    </linearGradient>
    <filter id="soft" x="-20%" y="-20%" width="140%" height="140%">
      <feDropShadow dx="0" dy="14" stdDeviation="22" flood-color="#3a0a1c" flood-opacity="0.35"/>
    </filter>
  </defs>

  <!-- App squircle -->
  <rect x="0" y="0" width="1024" height="1024" rx="232" fill="url(#bg)"/>
  <rect x="0" y="0" width="1024" height="1024" rx="232" fill="url(#glow)"/>

  <!-- Chat bubble -->
  <g filter="url(#soft)">
    <path d="M250 250
             h524 a70 70 0 0 1 70 70
             v300 a70 70 0 0 1 -70 70
             h-330
             l-118 110
             v-110
             h-76 a70 70 0 0 1 -70 -70
             v-300 a70 70 0 0 1 70 -70 z"
          fill="#ffffff"/>
  </g>

  <!-- Equalizer bars (live chat + RAVE energy) -->
  <g fill="url(#bars)">
    <rect x="338" y="408" width="64" height="184" rx="32"/>
    <rect x="446" y="350" width="64" height="300" rx="32"/>
    <rect x="554" y="396" width="64" height="208" rx="32"/>
    <rect x="662" y="436" width="64" height="128" rx="32"/>
  </g>
</svg>
